<?xml version="1.0" standalone="no"?>
<!DOCTYPE svg PUBLIC "-//W3C//DTD SVG 1.1//EN" "http://www.w3.org/Graphics/SVG/1.1/DTD/svg11.dtd">

<svg width="800" height="600" version="1.1" xmlns="http://www.w3.org/2000/svg">
	<ellipse stroke="black" stroke-width="1" fill="none" cx="442.5" cy="159.5" rx="30" ry="30"/>
	<text x="426.5" y="165.5" font-family="Times New Roman" font-size="20">Tag</text>
	<ellipse stroke="black" stroke-width="1" fill="none" cx="177.5" cy="124.5" rx="30" ry="30"/>
	<text x="143.5" y="130.5" font-family="Times New Roman" font-size="20">TagStart</text>
	<ellipse stroke="black" stroke-width="1" fill="none" cx="690.5" cy="181.5" rx="30" ry="30"/>
	<text x="642.5" y="187.5" font-family="Times New Roman" font-size="20">WhiteSpace</text>
	<ellipse stroke="black" stroke-width="1" fill="none" cx="63.5" cy="204.5" rx="30" ry="30"/>
	<text x="42.5" y="210.5" font-family="Times New Roman" font-size="20">Error</text>
	<ellipse stroke="black" stroke-width="1" fill="none" cx="661.5" cy="288.5" rx="30" ry="30"/>
	<text x="625.5" y="294.5" font-family="Times New Roman" font-size="20">Attribute</text>
	<ellipse stroke="black" stroke-width="1" fill="none" cx="600.5" cy="522.5" rx="30" ry="30"/>
	<text x="576.5" y="528.5" font-family="Times New Roman" font-size="20">Value</text>
	<ellipse stroke="black" stroke-width="1" fill="none" cx="690.5" cy="397.5" rx="30" ry="30"/>
	<text x="647.5" y="403.5" font-family="Times New Roman" font-size="20">ValueStart</text>
	<ellipse stroke="black" stroke-width="1" fill="none" cx="407.5" cy="498.5" rx="30" ry="30"/>
	<text x="367.5" y="504.5" font-family="Times New Roman" font-size="20">ValueEnd</text>
	<ellipse stroke="black" stroke-width="1" fill="none" cx="366.5" cy="332.5" rx="30" ry="30"/>
	<text x="334.5" y="338.5" font-family="Times New Roman" font-size="20">TagEnd</text>
	<ellipse stroke="black" stroke-width="1" fill="none" cx="199.5" cy="308.5" rx="30" ry="30"/>
	<text x="152.5" y="314.5" font-family="Times New Roman" font-size="20">ClosingTag</text>
	<ellipse stroke="black" stroke-width="1" fill="none" cx="127.5" cy="522.5" rx="30" ry="30"/>
	<text x="106.5" y="528.5" font-family="Times New Roman" font-size="20">END</text>
	<ellipse stroke="black" stroke-width="1" fill="none" cx="127.5" cy="522.5" rx="24" ry="24"/>
	<ellipse stroke="black" stroke-width="1" fill="none" cx="102.5" cy="52.5" rx="30" ry="30"/>
	<text x="70.5" y="58.5" font-family="Times New Roman" font-size="20">START</text>
	<ellipse stroke="black" stroke-width="1" fill="none" cx="102.5" cy="52.5" rx="24" ry="24"/>
	<ellipse stroke="black" stroke-width="1" fill="none" cx="102.5" cy="422.5" rx="30" ry="30"/>
	<text x="84.5" y="428.5" font-family="Times New Roman" font-size="20">Text</text>
	<ellipse stroke="black" stroke-width="1" fill="none" cx="305.5" cy="75.5" rx="30" ry="30"/>
	<text x="249.5" y="81.5" font-family="Times New Roman" font-size="20">EJSCodeStart</text>
	<ellipse stroke="black" stroke-width="1" fill="none" cx="682.5" cy="52.5" rx="30" ry="30"/>
	<text x="629.5" y="58.5" font-family="Times New Roman" font-size="20">EJSCodeEnd</text>
	<ellipse stroke="black" stroke-width="1" fill="none" cx="487.5" cy="52.5" rx="30" ry="30"/>
	<text x="450.5" y="58.5" font-family="Times New Roman" font-size="20">EJSCode</text>
	<path stroke="black" stroke-width="1" fill="none" d="M 447.998,130.127 A 22.5,22.5 0 1 1 469.158,145.997"/>
	<text x="488.5" y="96.5" font-family="Times New Roman" font-size="20">Letter</text>
	<polygon fill="black" stroke-width="1" points="469.158,145.997 478.276,148.419 475.331,138.863"/>
	<polygon stroke="black" stroke-width="1" points="207.242,128.428 412.758,155.572"/>
	<polygon fill="black" stroke-width="1" points="412.758,155.572 405.482,149.567 404.172,159.481"/>
	<text x="277.5" y="165.5" font-family="Times New Roman" font-size="20">Letter</text>
	<polygon stroke="black" stroke-width="1" points="472.383,162.151 660.617,178.849"/>
	<polygon fill="black" stroke-width="1" points="660.617,178.849 653.09,173.162 652.207,183.123"/>
	<text x="510.5" y="195.5" font-family="Times New Roman" font-size="20">WhiteSpace</text>
	<path stroke="black" stroke-width="1" fill="none" d="M 681.503,153.004 A 22.5,22.5 0 1 1 707.646,157.025"/>
	<text x="673.5" y="100.5" font-family="Times New Roman" font-size="20">WhiteSpace</text>
	<polygon fill="black" stroke-width="1" points="707.646,157.025 716.829,154.863 709.727,147.824"/>
	<polygon stroke="black" stroke-width="1" points="682.652,210.455 669.348,259.545"/>
	<polygon fill="black" stroke-width="1" points="669.348,259.545 676.266,253.131 666.615,250.515"/>
	<text x="620.5" y="235.5" font-family="Times New Roman" font-size="20">Letter</text>
	<path stroke="black" stroke-width="1" fill="none" d="M 574.885,507.11 A 22.5,22.5 0 1 1 597.134,492.807"/>
	<text x="511.5" y="456.5" font-family="Times New Roman" font-size="20">Letter</text>
	<polygon fill="black" stroke-width="1" points="597.134,492.807 602.581,485.105 592.598,484.535"/>
	<path stroke="black" stroke-width="1" fill="none" d="M 591.632,551.037 A 22.5,22.5 0 1 1 572.455,532.819"/>
	<text x="452.5" y="592.5" font-family="Times New Roman" font-size="20">WhiteSpace</text>
	<polygon fill="black" stroke-width="1" points="572.455,532.819 563.68,529.356 565.497,539.189"/>
	<polygon stroke="black" stroke-width="1" points="669.213,317.491 682.787,368.509"/>
	<polygon fill="black" stroke-width="1" points="682.787,368.509 685.562,359.492 675.898,362.063"/>
	<text x="657.5" y="354.5" font-family="Times New Roman" font-size="20">=</text>
	<polygon stroke="black" stroke-width="1" points="672.971,421.846 618.029,498.154"/>
	<polygon fill="black" stroke-width="1" points="618.029,498.154 626.761,494.583 618.646,488.74"/>
	<text x="631.5" y="452.5" font-family="Times New Roman" font-size="20">"</text>
	<polygon stroke="black" stroke-width="1" points="570.729,518.798 437.271,502.202"/>
	<polygon fill="black" stroke-width="1" points="437.271,502.202 444.593,508.151 445.827,498.227"/>
	<text x="502.5" y="500.5" font-family="Times New Roman" font-size="20">"</text>
	<path stroke="black" stroke-width="1" fill="none" d="M 380.703,511.725 A 22.5,22.5 0 1 1 380.703,485.275"/>
	<text x="238.5" y="504.5" font-family="Times New Roman" font-size="20">WhiteSpace</text>
	<polygon fill="black" stroke-width="1" points="380.703,485.275 377.17,476.527 371.292,484.618"/>
	<polygon stroke="black" stroke-width="1" points="400.307,469.375 373.693,361.625"/>
	<polygon fill="black" stroke-width="1" points="373.693,361.625 370.758,370.59 380.466,368.192"/>
	<text x="394.5" y="417.5" font-family="Times New Roman" font-size="20">&gt;</text>
	<polygon stroke="black" stroke-width="1" points="430.434,186.966 378.566,305.034"/>
	<polygon fill="black" stroke-width="1" points="378.566,305.034 386.362,299.72 377.206,295.698"/>
	<text x="385.5" y="242.5" font-family="Times New Roman" font-size="20">&gt;</text>
	<polygon stroke="black" stroke-width="1" points="181.062,154.288 195.938,278.712"/>
	<polygon fill="black" stroke-width="1" points="195.938,278.712 199.953,270.175 190.024,271.362"/>
	<text x="176.5" y="223.5" font-family="Times New Roman" font-size="20">/</text>
	<polygon stroke="black" stroke-width="1" points="343.017,351.169 150.983,503.831"/>
	<polygon fill="black" stroke-width="1" points="150.983,503.831 160.357,502.767 154.134,494.939"/>
	<text x="204.5" y="418.5" font-family="Times New Roman" font-size="20">EOF</text>
	<polygon stroke="black" stroke-width="1" points="124.142,73.276 155.858,103.724"/>
	<polygon fill="black" stroke-width="1" points="155.858,103.724 153.55,94.577 146.625,101.791"/>
	<text x="123.5" y="109.5" font-family="Times New Roman" font-size="20">&lt;</text>
	<path stroke="black" stroke-width="1" fill="none" d="M 226.297,295.275 A 22.5,22.5 0 1 1 226.297,321.725"/>
	<text x="272.5" y="314.5" font-family="Times New Roman" font-size="20">Letter</text>
	<polygon fill="black" stroke-width="1" points="226.297,321.725 229.83,330.473 235.708,322.382"/>
	<polygon stroke="black" stroke-width="1" points="229.195,312.768 336.805,328.232"/>
	<polygon fill="black" stroke-width="1" points="336.805,328.232 329.598,322.145 328.175,332.044"/>
	<text x="273.5" y="342.5" font-family="Times New Roman" font-size="20">&gt;</text>
	<path stroke="black" stroke-width="1" fill="none" d="M 681.269,266.091 A 22.5,22.5 0 1 1 691.312,290.561"/>
	<text x="731.5" y="259.5" font-family="Times New Roman" font-size="20">Letter</text>
	<polygon fill="black" stroke-width="1" points="691.312,290.561 697.902,297.312 700.268,287.596"/>
	<polygon stroke="black" stroke-width="1" points="430.621,479.384 638.379,307.616"/>
	<polygon fill="black" stroke-width="1" points="638.379,307.616 629.027,308.86 635.399,316.567"/>
	<text x="539.5" y="414.5" font-family="Times New Roman" font-size="20">Letter</text>
	<polygon stroke="black" stroke-width="1" points="346.325,310.297 197.675,146.703"/>
	<polygon fill="black" stroke-width="1" points="197.675,146.703 199.354,155.986 206.755,149.261"/>
	<text x="277.5" y="219.5" font-family="Times New Roman" font-size="20">&lt;</text>
	<path stroke="black" stroke-width="1" fill="none" d="M 393.297,319.275 A 22.5,22.5 0 1 1 393.297,345.725"/>
	<text x="439.5" y="338.5" font-family="Times New Roman" font-size="20">WhiteSpace</text>
	<polygon fill="black" stroke-width="1" points="393.297,345.725 396.83,354.473 402.708,346.382"/>
	<polygon stroke="black" stroke-width="1" points="338.105,342.18 130.895,412.82"/>
	<polygon fill="black" stroke-width="1" points="130.895,412.82 140.081,414.971 136.854,405.506"/>
	<text x="184.5" y="367.5" font-family="Times New Roman" font-size="20">Letter</text>
	<path stroke="black" stroke-width="1" fill="none" d="M 83.922,445.906 A 22.5,22.5 0 1 1 72.621,421.991"/>
	<text x="-13.5" y="467.5" font-family="Times New Roman" font-size="20">Letter</text>
	<polygon fill="black" stroke-width="1" points="72.621,421.991 65.69,415.591 63.832,425.417"/>
	<polygon stroke="black" stroke-width="1" points="109.822,393.407 170.178,153.593"/>
	<polygon fill="black" stroke-width="1" points="170.178,153.593 163.377,160.13 173.074,162.571"/>
	<text x="147.5" y="284.5" font-family="Times New Roman" font-size="20">&lt;</text>
	<polygon stroke="black" stroke-width="1" points="205.517,113.775 277.483,86.225"/>
	<polygon fill="black" stroke-width="1" points="277.483,86.225 268.224,84.416 271.799,93.755"/>
	<text x="245.5" y="121.5" font-family="Times New Roman" font-size="20">%</text>
	<polygon stroke="black" stroke-width="1" points="660.046,72.396 388.954,312.604"/>
	<polygon fill="black" stroke-width="1" points="388.954,312.604 398.257,311.041 391.625,303.557"/>
	<text x="508.5" y="183.5" font-family="Times New Roman" font-size="20">&gt;</text>
	<path stroke="black" stroke-width="1" fill="none" d="M 458.09,57.798 A 22.5,22.5 0 1 1 465.406,32.379"/>
	<text x="318.5" y="34.5" font-family="Times New Roman" font-size="20">WhiteSpace</text>
	<polygon fill="black" stroke-width="1" points="465.406,32.379 464.43,22.996 456.544,29.145"/>
	<path stroke="black" stroke-width="1" fill="none" d="M 504.309,27.792 A 22.5,22.5 0 1 1 517.335,50.813"/>
	<text x="552.5" y="13.5" font-family="Times New Roman" font-size="20">Letter</text>
	<polygon fill="black" stroke-width="1" points="517.335,50.813 524.718,56.685 525.85,46.75"/>
	<polygon stroke="black" stroke-width="1" points="517.5,52.5 652.5,52.5"/>
	<polygon fill="black" stroke-width="1" points="652.5,52.5 644.5,47.5 644.5,57.5"/>
	<text x="576.5" y="73.5" font-family="Times New Roman" font-size="20">%</text>
	<polygon stroke="black" stroke-width="1" points="335.263,71.739 457.737,56.261"/>
	<polygon fill="black" stroke-width="1" points="457.737,56.261 449.173,52.304 450.427,62.225"/>
	<text x="393.5" y="85.5" font-family="Times New Roman" font-size="20">=</text>
</svg>
